# xmcd
#
# Track frame offsets:
#	150
#	16720
#	31259
#	46175
#	59261
#	71486
#	85210
#	101046
#	114039
#	124893
#	139103
#	151697
#	174056
#	187185
#	206480
#	221205
#	239785
#	251892
#	269318
#	290128
#
# Disc length: 4008 seconds
#
# Revision: 1
# Processed by: cddbd v1.5.2PL0 Copyright (c) Steve Scherf et al.
# Submitted via: audiograbber 1.83.01
#
DISCID=220fa614
DTITLE=Muddy Waters - Muddy, Brass And The Blues - Can't Get No Grindin'
DYEAR=1966
DGENRE=Blues
TTITLE0=Corine, Corina
TTITLE1=Piney Brown Blues
TTITLE2=Black Night
TTITLE3=Trouble In Mind
TTITLE4=Going Back To Memphis
TTITLE5=Betty And Dupree
TTITLE6=Sweet Little Angel
TTITLE7=Take My Advice
TTITLE8=Trouble
TTITLE9=Hard Loser
TTITLE10=Can't Get No Grindin' (What's The Matter With The Meal)
TTITLE11=Mother's Bad Luck Child
TTITLE12=Funky Butt
TTITLE13=Sad Letter
TTITLE14=Someday I'm Gonna Ketch You
TTITLE15=Love Weapon
TTITLE16=Garbage Man
TTITLE17=After Hours
TTITLE18=Whiskey Ain't No Good
TTITLE19=Muddy Waters' Shuffle
EXTD=1966, 1973, digitally re-mastered 2011
EXTT0=
EXTT1=
EXTT2=
EXTT3=
EXTT4=
EXTT5=
EXTT6=
EXTT7=
EXTT8=
EXTT9=
EXTT10=
EXTT11=
EXTT12=
EXTT13=
EXTT14=
EXTT15=
EXTT16=
EXTT17=
EXTT18=
EXTT19=
PLAYORDER=
